<svg xmlns="http://www.w3.org/2000/svg" width="100%" viewBox="0 0 820 300" role="img" aria-label="OFF: normalizing-flow density graphs from base distribution rho-0 to target density rho">
  <defs>
    <linearGradient id="bg" x1="0" y1="0" x2="0.2" y2="1"><stop offset="0" stop-color="#cfeccb"/><stop offset="1" stop-color="#eef6da"/></linearGradient>
    <marker id="axar" viewBox="0 0 10 10" refX="6" refY="5" markerWidth="5" markerHeight="5" orient="auto"><path d="M1 1L8 5L1 9" fill="none" stroke="#1a1a1a" stroke-width="1.8" stroke-linecap="round" stroke-linejoin="round"/></marker>
    <filter id="rough"><feTurbulence type="fractalNoise" baseFrequency="0.03" numOctaves="2" seed="9" result="n"/><feDisplacementMap in="SourceGraphic" in2="n" scale="4" xChannelSelector="R" yChannelSelector="G"/></filter>
  </defs>
  <rect width="820" height="300" fill="url(#bg)"/>
  <g filter="url(#rough)" fill="#161616" font-family="Arial Black, Arial, sans-serif" font-weight="900" text-anchor="middle"><text x="410" y="98" font-size="104">OFF</text></g>
  <polygon points="174,192 233,192 233,186 250,198 233,210 233,204 174,204" fill="#b3b3b3"/>
  <polygon points="374,192 433,192 433,186 450,198 433,210 433,204 374,204" fill="#b3b3b3"/>
  <circle cx="597" cy="198" r="3.8" fill="#6a6a6a"/>
  <circle cx="610" cy="198" r="3.8" fill="#6a6a6a"/>
  <circle cx="623" cy="198" r="3.8" fill="#6a6a6a"/>
  <circle cx="112" cy="198" r="56" fill="none" stroke="#2a2a2a" stroke-width="2" stroke-dasharray="5 6"/>
  <line x1="72" y1="220" x2="158" y2="220" stroke="#1a1a1a" stroke-width="2" marker-end="url(#axar)"/>
  <line x1="82" y1="226" x2="82" y2="162" stroke="#1a1a1a" stroke-width="2" marker-end="url(#axar)"/>
  <polyline points="74.0,220.0 75.5,219.8 77.0,219.6 78.6,219.4 80.1,219.2 81.6,218.8 83.1,218.3 84.6,217.6 86.2,216.7 87.7,215.5 89.2,214.0 90.7,212.2 92.2,210.1 93.8,207.5 95.3,204.6 96.8,201.4 98.3,197.9 99.8,194.3 101.4,190.5 102.9,186.8 104.4,183.3 105.9,180.2 107.4,177.6 109.0,175.6 110.5,174.4 112.0,174.0 113.5,174.4 115.0,175.6 116.6,177.6 118.1,180.2 119.6,183.3 121.1,186.8 122.6,190.5 124.2,194.3 125.7,197.9 127.2,201.4 128.7,204.6 130.2,207.5 131.8,210.1 133.3,212.2 134.8,214.0 136.3,215.5 137.8,216.7 139.4,217.6 140.9,218.3 142.4,218.8 143.9,219.2 145.4,219.4 147.0,219.6 148.5,219.8 150.0,220.0" fill="none" stroke="#6d3fb0" stroke-width="3.4" stroke-linecap="round" stroke-linejoin="round"/>
  <circle cx="312" cy="198" r="56" fill="none" stroke="#2a2a2a" stroke-width="2" stroke-dasharray="5 6"/>
  <line x1="272" y1="220" x2="358" y2="220" stroke="#1a1a1a" stroke-width="2" marker-end="url(#axar)"/>
  <line x1="282" y1="226" x2="282" y2="162" stroke="#1a1a1a" stroke-width="2" marker-end="url(#axar)"/>
  <polyline points="274.0,220.0 275.5,219.7 277.0,219.4 278.6,218.9 280.1,218.2 281.6,217.0 283.1,215.3 284.6,212.9 286.2,209.9 287.7,206.2 289.2,202.2 290.7,197.9 292.2,193.9 293.8,190.7 295.3,188.5 296.8,187.8 298.3,188.5 299.8,190.7 301.4,193.9 302.9,197.9 304.4,202.1 305.9,206.1 307.4,209.5 309.0,212.2 310.5,213.9 312.0,214.7 313.5,214.3 315.0,212.9 316.6,210.2 318.1,206.4 319.6,201.6 321.1,195.9 322.6,189.9 324.2,184.1 325.7,179.1 327.2,175.6 328.7,174.0 330.2,174.5 331.8,177.2 333.3,181.5 334.8,187.0 336.3,193.0 337.8,198.9 339.4,204.3 340.9,208.9 342.4,212.5 343.9,215.1 345.4,217.0 347.0,218.2 348.5,219.0 350.0,220.0" fill="none" stroke="#6d3fb0" stroke-width="3.4" stroke-linecap="round" stroke-linejoin="round"/>
  <circle cx="512" cy="198" r="56" fill="none" stroke="#2a2a2a" stroke-width="2" stroke-dasharray="5 6"/>
  <line x1="472" y1="220" x2="558" y2="220" stroke="#1a1a1a" stroke-width="2" marker-end="url(#axar)"/>
  <line x1="482" y1="226" x2="482" y2="162" stroke="#1a1a1a" stroke-width="2" marker-end="url(#axar)"/>
  <polyline points="474.0,220.0 475.5,219.2 477.0,218.5 478.6,217.1 480.1,214.9 481.6,211.7 483.1,207.6 484.6,202.9 486.2,198.3 487.7,194.5 489.2,192.4 490.7,192.4 492.2,194.5 493.8,198.2 495.3,202.7 496.8,207.0 498.3,210.4 499.8,212.3 501.4,212.2 502.9,209.9 504.4,205.4 505.9,199.0 507.4,191.4 509.0,183.8 510.5,177.5 512.0,174.0 513.5,174.0 515.0,177.5 516.6,183.7 518.1,191.3 519.6,198.7 521.1,204.9 522.6,208.9 524.2,210.5 525.7,209.7 527.2,206.8 528.7,202.3 530.2,197.1 531.8,192.2 533.3,188.7 534.8,187.5 536.3,188.8 537.8,192.3 539.4,197.3 540.9,202.9 542.4,208.0 543.9,212.3 545.4,215.4 547.0,217.5 548.5,218.7 550.0,220.0" fill="none" stroke="#6d3fb0" stroke-width="3.4" stroke-linecap="round" stroke-linejoin="round"/>
  <circle cx="708" cy="198" r="56" fill="none" stroke="#2a2a2a" stroke-width="2" stroke-dasharray="5 6"/>
  <line x1="668" y1="220" x2="754" y2="220" stroke="#1a1a1a" stroke-width="2" marker-end="url(#axar)"/>
  <line x1="678" y1="226" x2="678" y2="162" stroke="#1a1a1a" stroke-width="2" marker-end="url(#axar)"/>
  <polyline points="670.0,220.0 671.5,219.2 673.0,217.6 674.6,214.4 676.1,209.2 677.6,202.7 679.1,197.0 680.6,194.7 682.2,196.9 683.7,202.3 685.2,207.9 686.7,210.7 688.2,208.7 689.8,201.9 691.3,192.1 692.8,183.2 694.3,179.6 695.8,183.2 697.4,192.2 698.9,202.3 700.4,209.5 701.9,212.2 703.4,210.0 705.0,204.4 706.5,197.6 708.0,193.1 709.5,193.1 711.0,197.6 712.6,204.3 714.1,209.8 715.6,211.6 717.1,208.3 718.6,199.9 720.2,188.4 721.7,178.2 723.2,174.0 724.7,178.0 726.2,187.7 727.8,198.0 729.3,204.3 730.8,204.9 732.3,201.2 733.8,196.6 735.4,194.6 736.9,197.0 738.4,202.7 739.9,209.2 741.4,214.4 743.0,217.6 744.5,219.2 746.0,220.0" fill="none" stroke="#6d3fb0" stroke-width="3.4" stroke-linecap="round" stroke-linejoin="round"/>
  <g font-family="Georgia, 'Times New Roman', serif" font-style="italic" fill="#2a1f4a" text-anchor="middle">
    <text x="112" y="282" font-size="28">&#961;<tspan font-size="17" dy="6" font-style="normal">0</tspan></text>
    <text x="708" y="282" font-size="28">&#961;</text>
  </g>
</svg>