<svg xmlns="http://www.w3.org/2000/svg" width="100%" viewBox="0 0 680 310" role="img" aria-label="OFF: normalizing-flow density graphs from base distribution rho-0 to target density rho">
  <defs>
    <linearGradient id="bg" x1="0" y1="0" x2="0.2" y2="1"><stop offset="0" stop-color="#cfeccb"/><stop offset="1" stop-color="#eef6da"/></linearGradient>
    <marker id="axar" viewBox="0 0 10 10" refX="6" refY="5" markerWidth="5" markerHeight="5" orient="auto"><path d="M1 1L8 5L1 9" fill="none" stroke="#1a1a1a" stroke-width="1.8" stroke-linecap="round" stroke-linejoin="round"/></marker>
    <filter id="rough"><feTurbulence type="fractalNoise" baseFrequency="0.03" numOctaves="2" seed="9" result="n"/><feDisplacementMap in="SourceGraphic" in2="n" scale="4" xChannelSelector="R" yChannelSelector="G"/></filter>
  </defs>
  <rect width="680" height="310" fill="url(#bg)"/>
  <g filter="url(#rough)" fill="#161616" font-family="Arial Black, Arial, sans-serif" font-weight="900" text-anchor="middle"><text x="340" y="100" font-size="108">OFF</text></g>
  <polygon points="162,199 182,199 182,193 198,205 182,217 182,211 162,211" fill="#b3b3b3"/>
  <polygon points="322,199 342,199 342,193 358,205 342,217 342,211 322,211" fill="#b3b3b3"/>
  <circle cx="488" cy="205" r="3.6" fill="#6a6a6a"/>
  <circle cx="500" cy="205" r="3.6" fill="#6a6a6a"/>
  <circle cx="512" cy="205" r="3.6" fill="#6a6a6a"/>
  <circle cx="100" cy="205" r="57" fill="none" stroke="#2a2a2a" stroke-width="2" stroke-dasharray="5 6"/>
  <line x1="60" y1="227" x2="146" y2="227" stroke="#1a1a1a" stroke-width="2" marker-end="url(#axar)"/>
  <line x1="70" y1="233" x2="70" y2="169" stroke="#1a1a1a" stroke-width="2" marker-end="url(#axar)"/>
  <polyline points="62.0,227.0 63.5,226.8 65.0,226.6 66.6,226.4 68.1,226.2 69.6,225.8 71.1,225.3 72.6,224.6 74.2,223.7 75.7,222.5 77.2,221.0 78.7,219.2 80.2,217.1 81.8,214.5 83.3,211.6 84.8,208.4 86.3,204.9 87.8,201.3 89.4,197.5 90.9,193.8 92.4,190.3 93.9,187.2 95.4,184.6 97.0,182.6 98.5,181.4 100.0,181.0 101.5,181.4 103.0,182.6 104.6,184.6 106.1,187.2 107.6,190.3 109.1,193.8 110.6,197.5 112.2,201.3 113.7,204.9 115.2,208.4 116.7,211.6 118.2,214.5 119.8,217.1 121.3,219.2 122.8,221.0 124.3,222.5 125.8,223.7 127.4,224.6 128.9,225.3 130.4,225.8 131.9,226.2 133.4,226.4 135.0,226.6 136.5,226.8 138.0,227.0" fill="none" stroke="#6d3fb0" stroke-width="3.4" stroke-linecap="round" stroke-linejoin="round"/>
  <circle cx="260" cy="205" r="57" fill="none" stroke="#2a2a2a" stroke-width="2" stroke-dasharray="5 6"/>
  <line x1="220" y1="227" x2="306" y2="227" stroke="#1a1a1a" stroke-width="2" marker-end="url(#axar)"/>
  <line x1="230" y1="233" x2="230" y2="169" stroke="#1a1a1a" stroke-width="2" marker-end="url(#axar)"/>
  <polyline points="222.0,227.0 223.5,226.7 225.0,226.4 226.6,225.9 228.1,225.2 229.6,224.0 231.1,222.3 232.6,219.9 234.2,216.9 235.7,213.2 237.2,209.2 238.7,204.9 240.2,200.9 241.8,197.7 243.3,195.5 244.8,194.8 246.3,195.5 247.8,197.7 249.4,200.9 250.9,204.9 252.4,209.1 253.9,213.1 255.4,216.5 257.0,219.2 258.5,220.9 260.0,221.7 261.5,221.3 263.0,219.9 264.6,217.2 266.1,213.4 267.6,208.6 269.1,202.9 270.6,196.9 272.2,191.1 273.7,186.1 275.2,182.6 276.7,181.0 278.2,181.5 279.8,184.2 281.3,188.5 282.8,194.0 284.3,200.0 285.8,205.9 287.4,211.3 288.9,215.9 290.4,219.5 291.9,222.1 293.4,224.0 295.0,225.2 296.5,226.0 298.0,227.0" fill="none" stroke="#6d3fb0" stroke-width="3.4" stroke-linecap="round" stroke-linejoin="round"/>
  <circle cx="420" cy="205" r="57" fill="none" stroke="#2a2a2a" stroke-width="2" stroke-dasharray="5 6"/>
  <line x1="380" y1="227" x2="466" y2="227" stroke="#1a1a1a" stroke-width="2" marker-end="url(#axar)"/>
  <line x1="390" y1="233" x2="390" y2="169" stroke="#1a1a1a" stroke-width="2" marker-end="url(#axar)"/>
  <polyline points="382.0,227.0 383.5,226.2 385.0,225.5 386.6,224.1 388.1,221.9 389.6,218.7 391.1,214.6 392.6,209.9 394.2,205.3 395.7,201.5 397.2,199.4 398.7,199.4 400.2,201.5 401.8,205.2 403.3,209.7 404.8,214.0 406.3,217.4 407.8,219.3 409.4,219.2 410.9,216.9 412.4,212.4 413.9,206.0 415.4,198.4 417.0,190.8 418.5,184.5 420.0,181.0 421.5,181.0 423.0,184.5 424.6,190.7 426.1,198.3 427.6,205.7 429.1,211.9 430.6,215.9 432.2,217.5 433.7,216.7 435.2,213.8 436.7,209.3 438.2,204.1 439.8,199.2 441.3,195.7 442.8,194.5 444.3,195.8 445.8,199.3 447.4,204.3 448.9,209.9 450.4,215.0 451.9,219.3 453.4,222.4 455.0,224.5 456.5,225.7 458.0,227.0" fill="none" stroke="#6d3fb0" stroke-width="3.4" stroke-linecap="round" stroke-linejoin="round"/>
  <circle cx="580" cy="205" r="57" fill="none" stroke="#2a2a2a" stroke-width="2" stroke-dasharray="5 6"/>
  <line x1="540" y1="227" x2="626" y2="227" stroke="#1a1a1a" stroke-width="2" marker-end="url(#axar)"/>
  <line x1="550" y1="233" x2="550" y2="169" stroke="#1a1a1a" stroke-width="2" marker-end="url(#axar)"/>
  <polyline points="542.0,227.0 543.5,226.2 545.0,224.6 546.6,221.4 548.1,216.2 549.6,209.7 551.1,204.0 552.6,201.7 554.2,203.9 555.7,209.3 557.2,214.9 558.7,217.7 560.2,215.7 561.8,208.9 563.3,199.1 564.8,190.2 566.3,186.6 567.8,190.2 569.4,199.2 570.9,209.3 572.4,216.5 573.9,219.2 575.4,217.0 577.0,211.4 578.5,204.6 580.0,200.1 581.5,200.1 583.0,204.6 584.6,211.3 586.1,216.8 587.6,218.6 589.1,215.3 590.6,206.9 592.2,195.4 593.7,185.2 595.2,181.0 596.7,185.0 598.2,194.7 599.8,205.0 601.3,211.3 602.8,211.9 604.3,208.2 605.8,203.6 607.4,201.6 608.9,204.0 610.4,209.7 611.9,216.2 613.4,221.4 615.0,224.6 616.5,226.2 618.0,227.0" fill="none" stroke="#6d3fb0" stroke-width="3.4" stroke-linecap="round" stroke-linejoin="round"/>
  <g font-family="Georgia, 'Times New Roman', serif" font-style="italic" fill="#2a1f4a" text-anchor="middle">
    <text x="100" y="286" font-size="28">&#961;<tspan font-size="17" dy="6">0</tspan></text>
    <text x="580" y="286" font-size="28">&#961;</text>
  </g>
</svg>