<svg xmlns="http://www.w3.org/2000/svg" width="100%" viewBox="0 0 820 300" role="img" aria-label="OFF: normalizing-flow density graphs, a base Gaussian splitting into an asymmetric bimodal density rho_phi">
  <defs>
    <linearGradient id="bg" x1="0" y1="0" x2="0.2" y2="1"><stop offset="0" stop-color="#cfeccb"/><stop offset="1" stop-color="#eef6da"/></linearGradient>
    <marker id="axar" viewBox="0 0 10 10" refX="6" refY="5" markerWidth="5" markerHeight="5" orient="auto"><path d="M1 1L8 5L1 9" fill="none" stroke="#1a1a1a" stroke-width="1.8" stroke-linecap="round" stroke-linejoin="round"/></marker>
    <filter id="rough"><feTurbulence type="fractalNoise" baseFrequency="0.03" numOctaves="2" seed="9" result="n"/><feDisplacementMap in="SourceGraphic" in2="n" scale="4" xChannelSelector="R" yChannelSelector="G"/></filter>
  </defs>
  <rect width="820" height="300" fill="url(#bg)"/>
  <g filter="url(#rough)" fill="#161616" font-family="Arial Black, Arial, sans-serif" font-weight="900" text-anchor="middle"><text x="410" y="101" font-size="116">OFF</text></g>
  <polygon points="174,192 233,192 233,186 250,198 233,210 233,204 174,204" fill="#b3b3b3"/>
  <polygon points="374,192 433,192 433,186 450,198 433,210 433,204 374,204" fill="#b3b3b3"/>
  <circle cx="597" cy="198" r="3.8" fill="#6a6a6a"/>
  <circle cx="610" cy="198" r="3.8" fill="#6a6a6a"/>
  <circle cx="623" cy="198" r="3.8" fill="#6a6a6a"/>
  <circle cx="112" cy="198" r="56" fill="none" stroke="#2a2a2a" stroke-width="2" stroke-dasharray="5 6"/>
  <line x1="72" y1="220" x2="158" y2="220" stroke="#1a1a1a" stroke-width="2" marker-end="url(#axar)"/>
  <line x1="82" y1="226" x2="82" y2="162" stroke="#1a1a1a" stroke-width="2" marker-end="url(#axar)"/>
  <polyline points="74.0,220.0 75.5,220.0 77.0,220.0 78.6,220.0 80.1,220.0 81.6,219.9 83.1,219.8 84.6,219.7 86.2,219.5 87.7,219.2 89.2,218.6 90.7,217.8 92.2,216.7 93.8,215.2 95.3,213.1 96.8,210.4 98.3,207.0 99.8,203.1 101.4,198.6 102.9,193.8 104.4,188.9 105.9,184.2 107.4,180.0 109.0,176.8 110.5,174.7 112.0,174.0 113.5,174.7 115.0,176.8 116.6,180.0 118.1,184.2 119.6,188.9 121.1,193.8 122.6,198.6 124.2,203.1 125.7,207.0 127.2,210.4 128.7,213.1 130.2,215.2 131.8,216.7 133.3,217.8 134.8,218.6 136.3,219.2 137.8,219.5 139.4,219.7 140.9,219.8 142.4,219.9 143.9,220.0 145.4,220.0 147.0,220.0 148.5,220.0 150.0,220.0" fill="none" stroke="#6d3fb0" stroke-width="3.4" stroke-linecap="round" stroke-linejoin="round"/>
  <circle cx="312" cy="198" r="56" fill="none" stroke="#2a2a2a" stroke-width="2" stroke-dasharray="5 6"/>
  <line x1="272" y1="220" x2="358" y2="220" stroke="#1a1a1a" stroke-width="2" marker-end="url(#axar)"/>
  <line x1="282" y1="226" x2="282" y2="162" stroke="#1a1a1a" stroke-width="2" marker-end="url(#axar)"/>
  <polyline points="274.0,220.0 275.5,219.7 277.0,219.5 278.6,219.2 280.1,218.6 281.6,217.7 283.1,216.3 284.6,214.4 286.2,211.8 287.7,208.5 289.2,204.4 290.7,199.7 292.2,194.5 293.8,189.1 295.3,184.0 296.8,179.6 298.3,176.3 299.8,174.4 301.4,174.0 302.9,175.1 304.4,177.4 305.9,180.4 307.4,183.6 309.0,186.3 310.5,188.2 312.0,188.9 313.5,188.2 315.0,186.3 316.6,183.6 318.1,180.4 319.6,177.4 321.1,175.1 322.6,174.0 324.2,174.4 325.7,176.3 327.2,179.6 328.7,184.0 330.2,189.1 331.8,194.5 333.3,199.7 334.8,204.4 336.3,208.5 337.8,211.8 339.4,214.4 340.9,216.3 342.4,217.7 343.9,218.6 345.4,219.2 347.0,219.5 348.5,219.7 350.0,220.0" fill="none" stroke="#6d3fb0" stroke-width="3.4" stroke-linecap="round" stroke-linejoin="round"/>
  <circle cx="512" cy="198" r="56" fill="none" stroke="#2a2a2a" stroke-width="2" stroke-dasharray="5 6"/>
  <line x1="472" y1="220" x2="558" y2="220" stroke="#1a1a1a" stroke-width="2" marker-end="url(#axar)"/>
  <line x1="482" y1="226" x2="482" y2="162" stroke="#1a1a1a" stroke-width="2" marker-end="url(#axar)"/>
  <polyline points="474.0,220.0 475.5,219.6 477.0,219.2 478.6,218.4 480.1,217.2 481.6,215.4 483.1,212.7 484.6,209.0 486.2,204.3 487.7,198.7 489.2,192.4 490.7,186.2 492.2,180.6 493.8,176.3 495.3,174.0 496.8,174.0 498.3,176.3 499.8,180.5 501.4,186.2 502.9,192.4 504.4,198.6 505.9,204.1 507.4,208.7 509.0,212.0 510.5,214.1 512.0,215.0 513.5,214.7 515.0,213.2 516.6,210.6 518.1,206.9 519.6,202.4 521.1,197.4 522.6,192.2 524.2,187.6 525.7,184.2 527.2,182.3 528.7,182.3 530.2,184.2 531.8,187.7 533.3,192.3 534.8,197.4 536.3,202.5 537.8,207.1 539.4,211.0 540.9,214.0 542.4,216.2 543.9,217.7 545.4,218.7 547.0,219.3 548.5,219.6 550.0,220.0" fill="none" stroke="#6d3fb0" stroke-width="3.4" stroke-linecap="round" stroke-linejoin="round"/>
  <circle cx="708" cy="198" r="56" fill="none" stroke="#2a2a2a" stroke-width="2" stroke-dasharray="5 6"/>
  <line x1="668" y1="220" x2="754" y2="220" stroke="#1a1a1a" stroke-width="2" marker-end="url(#axar)"/>
  <line x1="678" y1="226" x2="678" y2="162" stroke="#1a1a1a" stroke-width="2" marker-end="url(#axar)"/>
  <polyline points="670.0,220.0 671.5,219.2 673.0,218.0 674.6,215.9 676.1,212.2 677.6,206.6 679.1,199.1 680.6,190.5 682.2,182.2 683.7,176.2 685.2,174.0 686.7,176.2 688.2,182.2 689.8,190.5 691.3,199.1 692.8,206.6 694.3,212.2 695.8,215.9 697.4,218.0 698.9,219.2 700.4,219.7 701.9,219.9 703.4,220.0 705.0,220.0 706.5,220.0 708.0,220.0 709.5,220.0 711.0,220.0 712.6,220.0 714.1,219.9 715.6,219.8 717.1,219.5 718.6,218.9 720.2,217.6 721.7,215.5 723.2,212.2 724.7,207.9 726.2,202.9 727.8,198.1 729.3,194.6 730.8,193.3 732.3,194.6 733.8,198.1 735.4,202.9 736.9,207.9 738.4,212.2 739.9,215.5 741.4,217.6 743.0,218.9 744.5,219.5 746.0,220.0" fill="none" stroke="#6d3fb0" stroke-width="3.4" stroke-linecap="round" stroke-linejoin="round"/>
  <g font-family="Georgia, 'Times New Roman', serif" font-style="italic" fill="#2a1f4a" text-anchor="middle">
    <text x="112" y="286" font-size="28">&#961;<tspan font-size="17" dy="6" font-style="normal">0</tspan></text>
    <text x="708" y="286" font-size="28">&#961;<tspan font-size="17" dy="6">&#966;</tspan></text>
  </g>
</svg>